<?xml version="1.0" encoding="UTF-8" standalone="no"?>
<!DOCTYPE svg PUBLIC "-//W3C//DTD SVG 1.1//EN"
 "http://www.w3.org/Graphics/SVG/1.1/DTD/svg11.dtd">
<!-- Generated by graphviz version 2.40.1 (20161225.0304)
 -->
<!-- Title: snakemake_dag Pages: 1 -->
<svg width="1442pt" height="764pt"
 viewBox="0.00 0.00 1442.03 764.00" xmlns="http://www.w3.org/2000/svg" xmlns:xlink="http://www.w3.org/1999/xlink">
<g id="graph0" class="graph" transform="scale(1 1) rotate(0) translate(4 760)">
<title>snakemake_dag</title>
<polygon fill="#ffffff" stroke="transparent" points="-4,4 -4,-760 1438.0261,-760 1438.0261,4 -4,4"/>
<!-- 0 -->
<g id="node1" class="node">
<title>0</title>
<path fill="none" stroke="#5692d8" stroke-width="2" d="M741.0261,-36C741.0261,-36 711.0261,-36 711.0261,-36 705.0261,-36 699.0261,-30 699.0261,-24 699.0261,-24 699.0261,-12 699.0261,-12 699.0261,-6 705.0261,0 711.0261,0 711.0261,0 741.0261,0 741.0261,0 747.0261,0 753.0261,-6 753.0261,-12 753.0261,-12 753.0261,-24 753.0261,-24 753.0261,-30 747.0261,-36 741.0261,-36"/>
<text text-anchor="middle" x="726.0261" y="-15.5" font-family="sans" font-size="10.00" fill="#000000">END</text>
</g>
<!-- 1 -->
<g id="node2" class="node">
<title>1</title>
<path fill="none" stroke="#56d8b1" stroke-width="2" d="M1031.0261,-756C1031.0261,-756 1001.0261,-756 1001.0261,-756 995.0261,-756 989.0261,-750 989.0261,-744 989.0261,-744 989.0261,-732 989.0261,-732 989.0261,-726 995.0261,-720 1001.0261,-720 1001.0261,-720 1031.0261,-720 1031.0261,-720 1037.0261,-720 1043.0261,-726 1043.0261,-732 1043.0261,-732 1043.0261,-744 1043.0261,-744 1043.0261,-750 1037.0261,-756 1031.0261,-756"/>
<text text-anchor="middle" x="1016.0261" y="-735.5" font-family="sans" font-size="10.00" fill="#000000">prepare</text>
</g>
<!-- 10 -->
<g id="node11" class="node">
<title>10</title>
<path fill="none" stroke="#d8bc56" stroke-width="2" d="M1055.0261,-684C1055.0261,-684 977.0261,-684 977.0261,-684 971.0261,-684 965.0261,-678 965.0261,-672 965.0261,-672 965.0261,-660 965.0261,-660 965.0261,-654 971.0261,-648 977.0261,-648 977.0261,-648 1055.0261,-648 1055.0261,-648 1061.0261,-648 1067.0261,-654 1067.0261,-660 1067.0261,-660 1067.0261,-672 1067.0261,-672 1067.0261,-678 1061.0261,-684 1055.0261,-684"/>
<text text-anchor="middle" x="1016.0261" y="-669" font-family="sans" font-size="10.00" fill="#000000">mapreads</text>
<text text-anchor="middle" x="1016.0261" y="-658" font-family="sans" font-size="10.00" fill="#000000">sample: 18D2057</text>
</g>
<!-- 1&#45;&gt;10 -->
<g id="edge41" class="edge">
<title>1&#45;&gt;10</title>
<path fill="none" stroke="#c0c0c0" stroke-width="2" d="M1016.0261,-719.8314C1016.0261,-712.131 1016.0261,-702.9743 1016.0261,-694.4166"/>
<polygon fill="#c0c0c0" stroke="#c0c0c0" stroke-width="2" points="1019.5262,-694.4132 1016.0261,-684.4133 1012.5262,-694.4133 1019.5262,-694.4132"/>
</g>
<!-- 12 -->
<g id="node13" class="node">
<title>12</title>
<path fill="none" stroke="#d8bc56" stroke-width="2" d="M741.0261,-684C741.0261,-684 663.0261,-684 663.0261,-684 657.0261,-684 651.0261,-678 651.0261,-672 651.0261,-672 651.0261,-660 651.0261,-660 651.0261,-654 657.0261,-648 663.0261,-648 663.0261,-648 741.0261,-648 741.0261,-648 747.0261,-648 753.0261,-654 753.0261,-660 753.0261,-660 753.0261,-672 753.0261,-672 753.0261,-678 747.0261,-684 741.0261,-684"/>
<text text-anchor="middle" x="702.0261" y="-669" font-family="sans" font-size="10.00" fill="#000000">mapreads</text>
<text text-anchor="middle" x="702.0261" y="-658" font-family="sans" font-size="10.00" fill="#000000">sample: 18D4629</text>
</g>
<!-- 1&#45;&gt;12 -->
<g id="edge44" class="edge">
<title>1&#45;&gt;12</title>
<path fill="none" stroke="#c0c0c0" stroke-width="2" d="M988.9828,-731.799C939.0739,-720.3549 831.3586,-695.6559 763.0248,-679.987"/>
<polygon fill="#c0c0c0" stroke="#c0c0c0" stroke-width="2" points="763.7694,-676.567 753.2401,-677.7434 762.2049,-683.3899 763.7694,-676.567"/>
</g>
<!-- 29 -->
<g id="node30" class="node">
<title>29</title>
<path fill="none" stroke="#9fd856" stroke-width="2" d="M1291.0261,-612C1291.0261,-612 1243.0261,-612 1243.0261,-612 1237.0261,-612 1231.0261,-606 1231.0261,-600 1231.0261,-600 1231.0261,-588 1231.0261,-588 1231.0261,-582 1237.0261,-576 1243.0261,-576 1243.0261,-576 1291.0261,-576 1291.0261,-576 1297.0261,-576 1303.0261,-582 1303.0261,-588 1303.0261,-588 1303.0261,-600 1303.0261,-600 1303.0261,-606 1297.0261,-612 1291.0261,-612"/>
<text text-anchor="middle" x="1267.0261" y="-591.5" font-family="sans" font-size="10.00" fill="#000000">countbases</text>
</g>
<!-- 1&#45;&gt;29 -->
<g id="edge71" class="edge">
<title>1&#45;&gt;29</title>
<path fill="none" stroke="#c0c0c0" stroke-width="2" d="M1043.3653,-722.3154C1087.5941,-696.941 1175.067,-646.7574 1226.538,-617.2282"/>
<polygon fill="#c0c0c0" stroke="#c0c0c0" stroke-width="2" points="1228.4704,-620.1547 1235.4026,-612.1425 1224.987,-614.083 1228.4704,-620.1547"/>
</g>
<!-- 2 -->
<g id="node3" class="node">
<title>2</title>
<path fill="none" stroke="#56d0d8" stroke-width="2" d="M1050.0261,-612C1050.0261,-612 982.0261,-612 982.0261,-612 976.0261,-612 970.0261,-606 970.0261,-600 970.0261,-600 970.0261,-588 970.0261,-588 970.0261,-582 976.0261,-576 982.0261,-576 982.0261,-576 1050.0261,-576 1050.0261,-576 1056.0261,-576 1062.0261,-582 1062.0261,-588 1062.0261,-588 1062.0261,-600 1062.0261,-600 1062.0261,-606 1056.0261,-612 1050.0261,-612"/>
<text text-anchor="middle" x="1016.0261" y="-591.5" font-family="sans" font-size="10.00" fill="#000000">markduplicates</text>
</g>
<!-- 2&#45;&gt;0 -->
<g id="edge1" class="edge">
<title>2&#45;&gt;0</title>
<path fill="none" stroke="#c0c0c0" stroke-width="2" d="M1062.3565,-588.0569C1171.1879,-572.8052 1434.0261,-527.9063 1434.0261,-450 1434.0261,-450 1434.0261,-450 1434.0261,-162 1434.0261,-66.9512 1331.6435,-97.3086 1240.0261,-72 1149.9161,-47.1078 865.952,-26.9612 763.4176,-20.3268"/>
<polygon fill="#c0c0c0" stroke="#c0c0c0" stroke-width="2" points="763.4335,-16.8207 753.23,-19.6736 762.9855,-23.8063 763.4335,-16.8207"/>
</g>
<!-- 23 -->
<g id="node24" class="node">
<title>23</title>
<path fill="none" stroke="#b6d856" stroke-width="2" d="M1135.5261,-540C1135.5261,-540 1082.5261,-540 1082.5261,-540 1076.5261,-540 1070.5261,-534 1070.5261,-528 1070.5261,-528 1070.5261,-516 1070.5261,-516 1070.5261,-510 1076.5261,-504 1082.5261,-504 1082.5261,-504 1135.5261,-504 1135.5261,-504 1141.5261,-504 1147.5261,-510 1147.5261,-516 1147.5261,-516 1147.5261,-528 1147.5261,-528 1147.5261,-534 1141.5261,-540 1135.5261,-540"/>
<text text-anchor="middle" x="1109.0261" y="-519.5" font-family="sans" font-size="10.00" fill="#000000">alignmetrics</text>
</g>
<!-- 2&#45;&gt;23 -->
<g id="edge63" class="edge">
<title>2&#45;&gt;23</title>
<path fill="none" stroke="#c0c0c0" stroke-width="2" d="M1039.4939,-575.8314C1051.0587,-566.8779 1065.1665,-555.9558 1077.6444,-546.2955"/>
<polygon fill="#c0c0c0" stroke="#c0c0c0" stroke-width="2" points="1079.8011,-549.0521 1085.5657,-540.1628 1075.5159,-543.5171 1079.8011,-549.0521"/>
</g>
<!-- 24 -->
<g id="node25" class="node">
<title>24</title>
<path fill="none" stroke="#56c1d8" stroke-width="2" d="M1258.5261,-396C1258.5261,-396 1181.5261,-396 1181.5261,-396 1175.5261,-396 1169.5261,-390 1169.5261,-384 1169.5261,-384 1169.5261,-372 1169.5261,-372 1169.5261,-366 1175.5261,-360 1181.5261,-360 1181.5261,-360 1258.5261,-360 1258.5261,-360 1264.5261,-360 1270.5261,-366 1270.5261,-372 1270.5261,-372 1270.5261,-384 1270.5261,-384 1270.5261,-390 1264.5261,-396 1258.5261,-396"/>
<text text-anchor="middle" x="1220.0261" y="-375.5" font-family="sans" font-size="10.00" fill="#000000">insertsizemetrics</text>
</g>
<!-- 2&#45;&gt;24 -->
<g id="edge64" class="edge">
<title>2&#45;&gt;24</title>
<path fill="none" stroke="#c0c0c0" stroke-width="2" d="M1062.3332,-586.4068C1092.7894,-579.2073 1131.5772,-565.5234 1157.0261,-540 1193.2776,-503.6424 1179.2279,-479.7774 1198.0261,-432 1201.3827,-423.4688 1205.1177,-414.2157 1208.5432,-405.8191"/>
<polygon fill="#c0c0c0" stroke="#c0c0c0" stroke-width="2" points="1211.8291,-407.0307 1212.3812,-396.4503 1205.3516,-404.3771 1211.8291,-407.0307"/>
</g>
<!-- 26 -->
<g id="node27" class="node">
<title>26</title>
<path fill="none" stroke="#d85656" stroke-width="2" d="M1100.5261,-468C1100.5261,-468 1059.5261,-468 1059.5261,-468 1053.5261,-468 1047.5261,-462 1047.5261,-456 1047.5261,-456 1047.5261,-444 1047.5261,-444 1047.5261,-438 1053.5261,-432 1059.5261,-432 1059.5261,-432 1100.5261,-432 1100.5261,-432 1106.5261,-432 1112.5261,-438 1112.5261,-444 1112.5261,-444 1112.5261,-456 1112.5261,-456 1112.5261,-462 1106.5261,-468 1100.5261,-468"/>
<text text-anchor="middle" x="1080.0261" y="-447.5" font-family="sans" font-size="10.00" fill="#000000">hsmetrics</text>
</g>
<!-- 2&#45;&gt;26 -->
<g id="edge66" class="edge">
<title>2&#45;&gt;26</title>
<path fill="none" stroke="#c0c0c0" stroke-width="2" d="M1024.1317,-575.7623C1035.144,-550.9846 1054.9277,-506.4714 1067.7621,-477.5939"/>
<polygon fill="#c0c0c0" stroke="#c0c0c0" stroke-width="2" points="1071.1231,-478.6492 1071.9862,-468.0896 1064.7265,-475.8062 1071.1231,-478.6492"/>
</g>
<!-- 27 -->
<g id="node28" class="node">
<title>27</title>
<path fill="none" stroke="#d86e56" stroke-width="2" d="M968.5261,-396C968.5261,-396 893.5261,-396 893.5261,-396 887.5261,-396 881.5261,-390 881.5261,-384 881.5261,-384 881.5261,-372 881.5261,-372 881.5261,-366 887.5261,-360 893.5261,-360 893.5261,-360 968.5261,-360 968.5261,-360 974.5261,-360 980.5261,-366 980.5261,-372 980.5261,-372 980.5261,-384 980.5261,-384 980.5261,-390 974.5261,-396 968.5261,-396"/>
<text text-anchor="middle" x="931.0261" y="-375.5" font-family="sans" font-size="10.00" fill="#000000">depthofcoverage</text>
</g>
<!-- 2&#45;&gt;27 -->
<g id="edge68" class="edge">
<title>2&#45;&gt;27</title>
<path fill="none" stroke="#c0c0c0" stroke-width="2" d="M1003.7496,-575.6352C988.4003,-551.823 962.399,-508.5301 948.0261,-468 940.9067,-447.9241 936.5832,-424.2154 934.079,-406.1728"/>
<polygon fill="#c0c0c0" stroke="#c0c0c0" stroke-width="2" points="937.52,-405.4886 932.7768,-396.0148 930.5768,-406.3788 937.52,-405.4886"/>
</g>
<!-- 28 -->
<g id="node29" class="node">
<title>28</title>
<path fill="none" stroke="#56d8c9" stroke-width="2" d="M1269.0261,-468C1269.0261,-468 1219.0261,-468 1219.0261,-468 1213.0261,-468 1207.0261,-462 1207.0261,-456 1207.0261,-456 1207.0261,-444 1207.0261,-444 1207.0261,-438 1213.0261,-432 1219.0261,-432 1219.0261,-432 1269.0261,-432 1269.0261,-432 1275.0261,-432 1281.0261,-438 1281.0261,-444 1281.0261,-444 1281.0261,-456 1281.0261,-456 1281.0261,-462 1275.0261,-468 1269.0261,-468"/>
<text text-anchor="middle" x="1244.0261" y="-447.5" font-family="sans" font-size="10.00" fill="#000000">callvariants</text>
</g>
<!-- 2&#45;&gt;28 -->
<g id="edge70" class="edge">
<title>2&#45;&gt;28</title>
<path fill="none" stroke="#c0c0c0" stroke-width="2" d="M1062.2089,-589.4535C1100.756,-583.5881 1155.2981,-570.2406 1193.0261,-540 1213.0459,-523.9532 1226.6042,-497.7878 1234.678,-477.7948"/>
<polygon fill="#c0c0c0" stroke="#c0c0c0" stroke-width="2" points="1238.0177,-478.8594 1238.3052,-468.2685 1231.4759,-476.3685 1238.0177,-478.8594"/>
</g>
<!-- 31 -->
<g id="node32" class="node">
<title>31</title>
<path fill="none" stroke="#56d8a2" stroke-width="2" d="M811.5261,-540C811.5261,-540 766.5261,-540 766.5261,-540 760.5261,-540 754.5261,-534 754.5261,-528 754.5261,-528 754.5261,-516 754.5261,-516 754.5261,-510 760.5261,-504 766.5261,-504 766.5261,-504 811.5261,-504 811.5261,-504 817.5261,-504 823.5261,-510 823.5261,-516 823.5261,-516 823.5261,-528 823.5261,-528 823.5261,-534 817.5261,-540 811.5261,-540"/>
<text text-anchor="middle" x="789.0261" y="-519.5" font-family="sans" font-size="10.00" fill="#000000">recalibrate</text>
</g>
<!-- 2&#45;&gt;31 -->
<g id="edge75" class="edge">
<title>2&#45;&gt;31</title>
<path fill="none" stroke="#c0c0c0" stroke-width="2" d="M969.9869,-580.6331C934.1468,-570.0639 883.2337,-554.691 839.0261,-540 837.1547,-539.3781 835.2472,-538.7346 833.3227,-538.0773"/>
<polygon fill="#c0c0c0" stroke="#c0c0c0" stroke-width="2" points="834.2417,-534.6914 823.6469,-534.7139 831.9433,-541.3034 834.2417,-534.6914"/>
</g>
<!-- 37 -->
<g id="node38" class="node">
<title>37</title>
<path fill="none" stroke="#61d856" stroke-width="2" d="M854.0261,-324C854.0261,-324 786.0261,-324 786.0261,-324 780.0261,-324 774.0261,-318 774.0261,-312 774.0261,-312 774.0261,-300 774.0261,-300 774.0261,-294 780.0261,-288 786.0261,-288 786.0261,-288 854.0261,-288 854.0261,-288 860.0261,-288 866.0261,-294 866.0261,-300 866.0261,-300 866.0261,-312 866.0261,-312 866.0261,-318 860.0261,-324 854.0261,-324"/>
<text text-anchor="middle" x="820.0261" y="-303.5" font-family="sans" font-size="10.00" fill="#000000">addmosaicdata</text>
</g>
<!-- 2&#45;&gt;37 -->
<g id="edge86" class="edge">
<title>2&#45;&gt;37</title>
<path fill="none" stroke="#c0c0c0" stroke-width="2" d="M994.8034,-575.9117C983.7546,-565.9305 970.4209,-552.9584 960.0261,-540 904.8311,-471.1931 855.8168,-378.5844 833.226,-333.2729"/>
<polygon fill="#c0c0c0" stroke="#c0c0c0" stroke-width="2" points="836.2564,-331.5048 828.6879,-324.0907 829.9809,-334.6063 836.2564,-331.5048"/>
</g>
<!-- 39 -->
<g id="node40" class="node">
<title>39</title>
<path fill="none" stroke="#d8ac56" stroke-width="2" d="M1017.0261,-468C1017.0261,-468 969.0261,-468 969.0261,-468 963.0261,-468 957.0261,-462 957.0261,-456 957.0261,-456 957.0261,-444 957.0261,-444 957.0261,-438 963.0261,-432 969.0261,-432 969.0261,-432 1017.0261,-432 1017.0261,-432 1023.0261,-432 1029.0261,-438 1029.0261,-444 1029.0261,-444 1029.0261,-456 1029.0261,-456 1029.0261,-462 1023.0261,-468 1017.0261,-468"/>
<text text-anchor="middle" x="993.0261" y="-447.5" font-family="sans" font-size="10.00" fill="#000000">callableloci</text>
</g>
<!-- 2&#45;&gt;39 -->
<g id="edge89" class="edge">
<title>2&#45;&gt;39</title>
<path fill="none" stroke="#c0c0c0" stroke-width="2" d="M1013.1131,-575.7623C1009.1728,-551.0928 1002.1078,-506.8598 997.494,-477.9731"/>
<polygon fill="#c0c0c0" stroke="#c0c0c0" stroke-width="2" points="1000.9489,-477.4124 995.9154,-468.0896 994.0365,-478.5165 1000.9489,-477.4124"/>
</g>
<!-- 41 -->
<g id="node42" class="node">
<title>41</title>
<path fill="none" stroke="#78d856" stroke-width="2" d="M645.0261,-468C645.0261,-468 589.0261,-468 589.0261,-468 583.0261,-468 577.0261,-462 577.0261,-456 577.0261,-456 577.0261,-444 577.0261,-444 577.0261,-438 583.0261,-432 589.0261,-432 589.0261,-432 645.0261,-432 645.0261,-432 651.0261,-432 657.0261,-438 657.0261,-444 657.0261,-444 657.0261,-456 657.0261,-456 657.0261,-462 651.0261,-468 645.0261,-468"/>
<text text-anchor="middle" x="617.0261" y="-447.5" font-family="sans" font-size="10.00" fill="#000000">callsnpcheck</text>
</g>
<!-- 2&#45;&gt;41 -->
<g id="edge91" class="edge">
<title>2&#45;&gt;41</title>
<path fill="none" stroke="#c0c0c0" stroke-width="2" d="M969.7154,-590.6384C914.3406,-585.3124 819.771,-572.0212 745.0261,-540 707.3361,-523.8533 669.5938,-495.4603 644.9629,-474.8749"/>
<polygon fill="#c0c0c0" stroke="#c0c0c0" stroke-width="2" points="647.0188,-472.0289 637.1315,-468.222 642.4867,-477.3638 647.0188,-472.0289"/>
</g>
<!-- 3 -->
<g id="node4" class="node">
<title>3</title>
<path fill="none" stroke="#56d873" stroke-width="2" d="M812.5261,-396C812.5261,-396 757.5261,-396 757.5261,-396 751.5261,-396 745.5261,-390 745.5261,-384 745.5261,-384 745.5261,-372 745.5261,-372 745.5261,-366 751.5261,-360 757.5261,-360 757.5261,-360 812.5261,-360 812.5261,-360 818.5261,-360 824.5261,-366 824.5261,-372 824.5261,-372 824.5261,-384 824.5261,-384 824.5261,-390 818.5261,-396 812.5261,-396"/>
<text text-anchor="middle" x="785.0261" y="-375.5" font-family="sans" font-size="10.00" fill="#000000">filtervariants</text>
</g>
<!-- 3&#45;&gt;0 -->
<g id="edge2" class="edge">
<title>3&#45;&gt;0</title>
<path fill="none" stroke="#c0c0c0" stroke-width="2" d="M773.3042,-359.717C758.8561,-335.9911 735.103,-292.7894 726.0261,-252 709.8436,-179.2807 716.8451,-90.6718 722.1195,-46.2517"/>
<polygon fill="#c0c0c0" stroke="#c0c0c0" stroke-width="2" points="725.6086,-46.5557 723.3749,-36.199 718.6626,-45.6881 725.6086,-46.5557"/>
</g>
<!-- 8 -->
<g id="node9" class="node">
<title>8</title>
<path fill="none" stroke="#d8d356" stroke-width="2" d="M1249.0261,-324C1249.0261,-324 1219.0261,-324 1219.0261,-324 1213.0261,-324 1207.0261,-318 1207.0261,-312 1207.0261,-312 1207.0261,-300 1207.0261,-300 1207.0261,-294 1213.0261,-288 1219.0261,-288 1219.0261,-288 1249.0261,-288 1249.0261,-288 1255.0261,-288 1261.0261,-294 1261.0261,-300 1261.0261,-300 1261.0261,-312 1261.0261,-312 1261.0261,-318 1255.0261,-324 1249.0261,-324"/>
<text text-anchor="middle" x="1234.0261" y="-303.5" font-family="sans" font-size="10.00" fill="#000000">qcplots</text>
</g>
<!-- 3&#45;&gt;8 -->
<g id="edge29" class="edge">
<title>3&#45;&gt;8</title>
<path fill="none" stroke="#c0c0c0" stroke-width="2" d="M824.7819,-369.2869C839.579,-366.1726 856.5367,-362.7554 872.0261,-360 989.9562,-339.0214 1130.4914,-319.6585 1196.398,-310.9068"/>
<polygon fill="#c0c0c0" stroke="#c0c0c0" stroke-width="2" points="1197.2395,-314.326 1206.6944,-309.5453 1196.3219,-307.3864 1197.2395,-314.326"/>
</g>
<!-- 36 -->
<g id="node37" class="node">
<title>36</title>
<path fill="none" stroke="#61d856" stroke-width="2" d="M706.0261,-324C706.0261,-324 638.0261,-324 638.0261,-324 632.0261,-324 626.0261,-318 626.0261,-312 626.0261,-312 626.0261,-300 626.0261,-300 626.0261,-294 632.0261,-288 638.0261,-288 638.0261,-288 706.0261,-288 706.0261,-288 712.0261,-288 718.0261,-294 718.0261,-300 718.0261,-300 718.0261,-312 718.0261,-312 718.0261,-318 712.0261,-324 706.0261,-324"/>
<text text-anchor="middle" x="672.0261" y="-303.5" font-family="sans" font-size="10.00" fill="#000000">addmosaicdata</text>
</g>
<!-- 3&#45;&gt;36 -->
<g id="edge81" class="edge">
<title>3&#45;&gt;36</title>
<path fill="none" stroke="#c0c0c0" stroke-width="2" d="M756.5114,-359.8314C742.1918,-350.7074 724.6637,-339.539 709.2923,-329.7449"/>
<polygon fill="#c0c0c0" stroke="#c0c0c0" stroke-width="2" points="710.8459,-326.5847 700.5316,-324.1628 707.0844,-332.4882 710.8459,-326.5847"/>
</g>
<!-- 4 -->
<g id="node5" class="node">
<title>4</title>
<path fill="none" stroke="#56d0d8" stroke-width="2" d="M519.0261,-612C519.0261,-612 451.0261,-612 451.0261,-612 445.0261,-612 439.0261,-606 439.0261,-600 439.0261,-600 439.0261,-588 439.0261,-588 439.0261,-582 445.0261,-576 451.0261,-576 451.0261,-576 519.0261,-576 519.0261,-576 525.0261,-576 531.0261,-582 531.0261,-588 531.0261,-588 531.0261,-600 531.0261,-600 531.0261,-606 525.0261,-612 519.0261,-612"/>
<text text-anchor="middle" x="485.0261" y="-591.5" font-family="sans" font-size="10.00" fill="#000000">markduplicates</text>
</g>
<!-- 4&#45;&gt;0 -->
<g id="edge3" class="edge">
<title>4&#45;&gt;0</title>
<path fill="none" stroke="#c0c0c0" stroke-width="2" d="M438.9724,-591.2138C330.2694,-584.2566 64.4852,-564.879 33.0261,-540 -.391,-513.5726 .0261,-492.6041 .0261,-450 .0261,-450 .0261,-450 .0261,-162 .0261,-91.0223 540.8227,-35.2974 688.9195,-21.3678"/>
<polygon fill="#c0c0c0" stroke="#c0c0c0" stroke-width="2" points="689.2594,-24.8514 698.891,-20.4375 688.6091,-17.8817 689.2594,-24.8514"/>
</g>
<!-- 11 -->
<g id="node12" class="node">
<title>11</title>
<path fill="none" stroke="#56d8c9" stroke-width="2" d="M813.0261,-468C813.0261,-468 763.0261,-468 763.0261,-468 757.0261,-468 751.0261,-462 751.0261,-456 751.0261,-456 751.0261,-444 751.0261,-444 751.0261,-438 757.0261,-432 763.0261,-432 763.0261,-432 813.0261,-432 813.0261,-432 819.0261,-432 825.0261,-438 825.0261,-444 825.0261,-444 825.0261,-456 825.0261,-456 825.0261,-462 819.0261,-468 813.0261,-468"/>
<text text-anchor="middle" x="788.0261" y="-447.5" font-family="sans" font-size="10.00" fill="#000000">callvariants</text>
</g>
<!-- 4&#45;&gt;11 -->
<g id="edge42" class="edge">
<title>4&#45;&gt;11</title>
<path fill="none" stroke="#c0c0c0" stroke-width="2" d="M531.1307,-589.6344C576.3862,-583.7347 646.1267,-570.2236 699.0261,-540 727.199,-523.9036 752.4809,-496.4345 768.8343,-476.0667"/>
<polygon fill="#c0c0c0" stroke="#c0c0c0" stroke-width="2" points="771.6619,-478.1326 775.0695,-468.1007 766.1497,-473.818 771.6619,-478.1326"/>
</g>
<!-- 17 -->
<g id="node18" class="node">
<title>17</title>
<path fill="none" stroke="#b6d856" stroke-width="2" d="M243.5261,-540C243.5261,-540 190.5261,-540 190.5261,-540 184.5261,-540 178.5261,-534 178.5261,-528 178.5261,-528 178.5261,-516 178.5261,-516 178.5261,-510 184.5261,-504 190.5261,-504 190.5261,-504 243.5261,-504 243.5261,-504 249.5261,-504 255.5261,-510 255.5261,-516 255.5261,-516 255.5261,-528 255.5261,-528 255.5261,-534 249.5261,-540 243.5261,-540"/>
<text text-anchor="middle" x="217.0261" y="-519.5" font-family="sans" font-size="10.00" fill="#000000">alignmetrics</text>
</g>
<!-- 4&#45;&gt;17 -->
<g id="edge53" class="edge">
<title>4&#45;&gt;17</title>
<path fill="none" stroke="#c0c0c0" stroke-width="2" d="M438.9552,-581.6228C390.5109,-568.6079 314.615,-548.2179 265.3423,-534.9805"/>
<polygon fill="#c0c0c0" stroke="#c0c0c0" stroke-width="2" points="266.1211,-531.5657 255.5554,-532.3512 264.3048,-538.3259 266.1211,-531.5657"/>
</g>
<!-- 18 -->
<g id="node19" class="node">
<title>18</title>
<path fill="none" stroke="#d85656" stroke-width="2" d="M95.5261,-540C95.5261,-540 54.5261,-540 54.5261,-540 48.5261,-540 42.5261,-534 42.5261,-528 42.5261,-528 42.5261,-516 42.5261,-516 42.5261,-510 48.5261,-504 54.5261,-504 54.5261,-504 95.5261,-504 95.5261,-504 101.5261,-504 107.5261,-510 107.5261,-516 107.5261,-516 107.5261,-528 107.5261,-528 107.5261,-534 101.5261,-540 95.5261,-540"/>
<text text-anchor="middle" x="75.0261" y="-519.5" font-family="sans" font-size="10.00" fill="#000000">hsmetrics</text>
</g>
<!-- 4&#45;&gt;18 -->
<g id="edge54" class="edge">
<title>4&#45;&gt;18</title>
<path fill="none" stroke="#c0c0c0" stroke-width="2" d="M438.9225,-586.4175C377.3408,-576.2217 264.8646,-557.363 169.0261,-540 152.2611,-536.9627 133.8455,-533.4707 117.7912,-530.3756"/>
<polygon fill="#c0c0c0" stroke="#c0c0c0" stroke-width="2" points="118.1061,-526.8717 107.6233,-528.4077 116.776,-533.7441 118.1061,-526.8717"/>
</g>
<!-- 19 -->
<g id="node20" class="node">
<title>19</title>
<path fill="none" stroke="#56c1d8" stroke-width="2" d="M715.5261,-396C715.5261,-396 638.5261,-396 638.5261,-396 632.5261,-396 626.5261,-390 626.5261,-384 626.5261,-384 626.5261,-372 626.5261,-372 626.5261,-366 632.5261,-360 638.5261,-360 638.5261,-360 715.5261,-360 715.5261,-360 721.5261,-360 727.5261,-366 727.5261,-372 727.5261,-372 727.5261,-384 727.5261,-384 727.5261,-390 721.5261,-396 715.5261,-396"/>
<text text-anchor="middle" x="677.0261" y="-375.5" font-family="sans" font-size="10.00" fill="#000000">insertsizemetrics</text>
</g>
<!-- 4&#45;&gt;19 -->
<g id="edge55" class="edge">
<title>4&#45;&gt;19</title>
<path fill="none" stroke="#c0c0c0" stroke-width="2" d="M529.7846,-575.9131C572.4386,-556.1471 634.6656,-520.1786 666.0261,-468 677.1268,-449.5303 679.5009,-425.0781 679.3071,-406.323"/>
<polygon fill="#c0c0c0" stroke="#c0c0c0" stroke-width="2" points="682.8039,-406.1684 678.9588,-396.296 675.8082,-406.4115 682.8039,-406.1684"/>
</g>
<!-- 20 -->
<g id="node21" class="node">
<title>20</title>
<path fill="none" stroke="#d86e56" stroke-width="2" d="M557.5261,-396C557.5261,-396 482.5261,-396 482.5261,-396 476.5261,-396 470.5261,-390 470.5261,-384 470.5261,-384 470.5261,-372 470.5261,-372 470.5261,-366 476.5261,-360 482.5261,-360 482.5261,-360 557.5261,-360 557.5261,-360 563.5261,-360 569.5261,-366 569.5261,-372 569.5261,-372 569.5261,-384 569.5261,-384 569.5261,-390 563.5261,-396 557.5261,-396"/>
<text text-anchor="middle" x="520.0261" y="-375.5" font-family="sans" font-size="10.00" fill="#000000">depthofcoverage</text>
</g>
<!-- 4&#45;&gt;20 -->
<g id="edge56" class="edge">
<title>4&#45;&gt;20</title>
<path fill="none" stroke="#c0c0c0" stroke-width="2" d="M471.5672,-575.7914C450.4196,-544.7671 414.3395,-480.329 440.0261,-432 446.6076,-419.617 457.4353,-409.5593 469.0298,-401.63"/>
<polygon fill="#c0c0c0" stroke="#c0c0c0" stroke-width="2" points="470.982,-404.5365 477.5581,-396.2295 467.237,-398.6225 470.982,-404.5365"/>
</g>
<!-- 4&#45;&gt;31 -->
<g id="edge74" class="edge">
<title>4&#45;&gt;31</title>
<path fill="none" stroke="#c0c0c0" stroke-width="2" d="M531.3743,-586.1063C582.6485,-576.9213 667.4856,-560.3796 739.0261,-540 740.8894,-539.4692 742.7835,-538.9044 744.6907,-538.3146"/>
<polygon fill="#c0c0c0" stroke="#c0c0c0" stroke-width="2" points="745.8298,-541.6247 754.2553,-535.2011 743.663,-534.9685 745.8298,-541.6247"/>
</g>
<!-- 32 -->
<g id="node33" class="node">
<title>32</title>
<path fill="none" stroke="#d8ac56" stroke-width="2" d="M509.0261,-468C509.0261,-468 461.0261,-468 461.0261,-468 455.0261,-468 449.0261,-462 449.0261,-456 449.0261,-456 449.0261,-444 449.0261,-444 449.0261,-438 455.0261,-432 461.0261,-432 461.0261,-432 509.0261,-432 509.0261,-432 515.0261,-432 521.0261,-438 521.0261,-444 521.0261,-444 521.0261,-456 521.0261,-456 521.0261,-462 515.0261,-468 509.0261,-468"/>
<text text-anchor="middle" x="485.0261" y="-447.5" font-family="sans" font-size="10.00" fill="#000000">callableloci</text>
</g>
<!-- 4&#45;&gt;32 -->
<g id="edge76" class="edge">
<title>4&#45;&gt;32</title>
<path fill="none" stroke="#c0c0c0" stroke-width="2" d="M485.0261,-575.7623C485.0261,-551.201 485.0261,-507.2474 485.0261,-478.3541"/>
<polygon fill="#c0c0c0" stroke="#c0c0c0" stroke-width="2" points="488.5262,-478.0896 485.0261,-468.0896 481.5262,-478.0897 488.5262,-478.0896"/>
</g>
<!-- 4&#45;&gt;36 -->
<g id="edge82" class="edge">
<title>4&#45;&gt;36</title>
<path fill="none" stroke="#c0c0c0" stroke-width="2" d="M492.4932,-575.893C510.056,-534.6537 557.0614,-431.7639 617.0261,-360 625.3382,-350.0523 635.2355,-339.9005 644.3278,-331.1237"/>
<polygon fill="#c0c0c0" stroke="#c0c0c0" stroke-width="2" points="646.8765,-333.5302 651.7236,-324.1092 642.0594,-328.4513 646.8765,-333.5302"/>
</g>
<!-- 40 -->
<g id="node41" class="node">
<title>40</title>
<path fill="none" stroke="#78d856" stroke-width="2" d="M368.0261,-540C368.0261,-540 312.0261,-540 312.0261,-540 306.0261,-540 300.0261,-534 300.0261,-528 300.0261,-528 300.0261,-516 300.0261,-516 300.0261,-510 306.0261,-504 312.0261,-504 312.0261,-504 368.0261,-504 368.0261,-504 374.0261,-504 380.0261,-510 380.0261,-516 380.0261,-516 380.0261,-528 380.0261,-528 380.0261,-534 374.0261,-540 368.0261,-540"/>
<text text-anchor="middle" x="340.0261" y="-519.5" font-family="sans" font-size="10.00" fill="#000000">callsnpcheck</text>
</g>
<!-- 4&#45;&gt;40 -->
<g id="edge90" class="edge">
<title>4&#45;&gt;40</title>
<path fill="none" stroke="#c0c0c0" stroke-width="2" d="M448.4364,-575.8314C429.3021,-566.3302 405.7032,-554.6121 385.4139,-544.5374"/>
<polygon fill="#c0c0c0" stroke="#c0c0c0" stroke-width="2" points="386.8658,-541.3506 376.3526,-540.038 383.7526,-547.6203 386.8658,-541.3506"/>
</g>
<!-- 5 -->
<g id="node6" class="node">
<title>5</title>
<path fill="none" stroke="#d89556" stroke-width="2" d="M273.0261,-180C273.0261,-180 215.0261,-180 215.0261,-180 209.0261,-180 203.0261,-174 203.0261,-168 203.0261,-168 203.0261,-156 203.0261,-156 203.0261,-150 209.0261,-144 215.0261,-144 215.0261,-144 273.0261,-144 273.0261,-144 279.0261,-144 285.0261,-150 285.0261,-156 285.0261,-156 285.0261,-168 285.0261,-168 285.0261,-174 279.0261,-180 273.0261,-180"/>
<text text-anchor="middle" x="244.0261" y="-159.5" font-family="sans" font-size="10.00" fill="#000000">samplereport</text>
</g>
<!-- 5&#45;&gt;0 -->
<g id="edge4" class="edge">
<title>5&#45;&gt;0</title>
<path fill="none" stroke="#c0c0c0" stroke-width="2" d="M268.3169,-143.8373C297.3628,-123.0694 348.1975,-89.6692 397.0261,-72 498.3861,-35.3216 626.3781,-23.4307 688.6177,-19.6736"/>
<polygon fill="#c0c0c0" stroke="#c0c0c0" stroke-width="2" points="688.9556,-23.1601 698.7415,-19.0999 688.5595,-16.1713 688.9556,-23.1601"/>
</g>
<!-- 9 -->
<g id="node10" class="node">
<title>9</title>
<path fill="none" stroke="#566bd8" stroke-width="2" d="M464.0261,-108C464.0261,-108 418.0261,-108 418.0261,-108 412.0261,-108 406.0261,-102 406.0261,-96 406.0261,-96 406.0261,-84 406.0261,-84 406.0261,-78 412.0261,-72 418.0261,-72 418.0261,-72 464.0261,-72 464.0261,-72 470.0261,-72 476.0261,-78 476.0261,-84 476.0261,-84 476.0261,-96 476.0261,-96 476.0261,-102 470.0261,-108 464.0261,-108"/>
<text text-anchor="middle" x="441.0261" y="-87.5" font-family="sans" font-size="10.00" fill="#000000">seriereport</text>
</g>
<!-- 5&#45;&gt;9 -->
<g id="edge37" class="edge">
<title>5&#45;&gt;9</title>
<path fill="none" stroke="#c0c0c0" stroke-width="2" d="M285.3237,-146.9064C317.7734,-135.0466 362.8984,-118.5543 396.2188,-106.3763"/>
<polygon fill="#c0c0c0" stroke="#c0c0c0" stroke-width="2" points="397.5267,-109.6247 405.7176,-102.9046 395.1238,-103.0501 397.5267,-109.6247"/>
</g>
<!-- 6 -->
<g id="node7" class="node">
<title>6</title>
<path fill="none" stroke="#d89556" stroke-width="2" d="M983.0261,-180C983.0261,-180 925.0261,-180 925.0261,-180 919.0261,-180 913.0261,-174 913.0261,-168 913.0261,-168 913.0261,-156 913.0261,-156 913.0261,-150 919.0261,-144 925.0261,-144 925.0261,-144 983.0261,-144 983.0261,-144 989.0261,-144 995.0261,-150 995.0261,-156 995.0261,-156 995.0261,-168 995.0261,-168 995.0261,-174 989.0261,-180 983.0261,-180"/>
<text text-anchor="middle" x="954.0261" y="-159.5" font-family="sans" font-size="10.00" fill="#000000">samplereport</text>
</g>
<!-- 6&#45;&gt;0 -->
<g id="edge5" class="edge">
<title>6&#45;&gt;0</title>
<path fill="none" stroke="#c0c0c0" stroke-width="2" d="M925.1497,-143.7623C883.5846,-117.5106 806.943,-69.1055 761.831,-40.6137"/>
<polygon fill="#c0c0c0" stroke="#c0c0c0" stroke-width="2" points="763.5727,-37.574 753.2488,-35.1933 759.8347,-43.4925 763.5727,-37.574"/>
</g>
<!-- 6&#45;&gt;9 -->
<g id="edge40" class="edge">
<title>6&#45;&gt;9</title>
<path fill="none" stroke="#c0c0c0" stroke-width="2" d="M912.9123,-156.2296C818.0738,-142.919 584.5956,-110.1501 486.06,-96.3206"/>
<polygon fill="#c0c0c0" stroke="#c0c0c0" stroke-width="2" points="486.5073,-92.8491 476.1178,-94.9252 485.5343,-99.7812 486.5073,-92.8491"/>
</g>
<!-- 7 -->
<g id="node8" class="node">
<title>7</title>
<path fill="none" stroke="#56d873" stroke-width="2" d="M1355.5261,-396C1355.5261,-396 1300.5261,-396 1300.5261,-396 1294.5261,-396 1288.5261,-390 1288.5261,-384 1288.5261,-384 1288.5261,-372 1288.5261,-372 1288.5261,-366 1294.5261,-360 1300.5261,-360 1300.5261,-360 1355.5261,-360 1355.5261,-360 1361.5261,-360 1367.5261,-366 1367.5261,-372 1367.5261,-372 1367.5261,-384 1367.5261,-384 1367.5261,-390 1361.5261,-396 1355.5261,-396"/>
<text text-anchor="middle" x="1328.0261" y="-375.5" font-family="sans" font-size="10.00" fill="#000000">filtervariants</text>
</g>
<!-- 7&#45;&gt;0 -->
<g id="edge6" class="edge">
<title>7&#45;&gt;0</title>
<path fill="none" stroke="#c0c0c0" stroke-width="2" d="M1324.0893,-359.9156C1318.524,-332.7281 1309.0261,-279.6422 1309.0261,-234 1309.0261,-234 1309.0261,-234 1309.0261,-162 1309.0261,-49.1855 892.3799,-24.2012 763.5321,-19.1721"/>
<polygon fill="#c0c0c0" stroke="#c0c0c0" stroke-width="2" points="763.4867,-15.6681 753.3634,-18.7938 763.2263,-22.6633 763.4867,-15.6681"/>
</g>
<!-- 7&#45;&gt;8 -->
<g id="edge33" class="edge">
<title>7&#45;&gt;8</title>
<path fill="none" stroke="#c0c0c0" stroke-width="2" d="M1304.3059,-359.8314C1292.6167,-350.8779 1278.3573,-339.9558 1265.7452,-330.2955"/>
<polygon fill="#c0c0c0" stroke="#c0c0c0" stroke-width="2" points="1267.8057,-327.4651 1257.7386,-324.1628 1263.5492,-333.0222 1267.8057,-327.4651"/>
</g>
<!-- 7&#45;&gt;37 -->
<g id="edge85" class="edge">
<title>7&#45;&gt;37</title>
<path fill="none" stroke="#c0c0c0" stroke-width="2" d="M1288.4671,-362.2247C1285.6359,-361.387 1282.8031,-360.6318 1280.0261,-360 1107.003,-320.6335 1053.9558,-358.9044 875.9857,-323.9064"/>
<polygon fill="#c0c0c0" stroke="#c0c0c0" stroke-width="2" points="876.5286,-320.4455 866.034,-321.8992 875.1446,-327.3073 876.5286,-320.4455"/>
</g>
<!-- 8&#45;&gt;0 -->
<g id="edge7" class="edge">
<title>8&#45;&gt;0</title>
<path fill="none" stroke="#c0c0c0" stroke-width="2" d="M1227.3216,-287.8658C1219.1289,-267.9043 1203.5225,-235.9992 1181.0261,-216 1052.0042,-101.3005 846.1748,-44.8465 762.8423,-25.7327"/>
<polygon fill="#c0c0c0" stroke="#c0c0c0" stroke-width="2" points="763.5932,-22.3142 753.0689,-23.5344 762.0571,-29.1436 763.5932,-22.3142"/>
</g>
<!-- 9&#45;&gt;0 -->
<g id="edge8" class="edge">
<title>9&#45;&gt;0</title>
<path fill="none" stroke="#c0c0c0" stroke-width="2" d="M476.2585,-81.0992C530.5172,-67.3917 634.0236,-41.2427 689.2183,-27.2988"/>
<polygon fill="#c0c0c0" stroke="#c0c0c0" stroke-width="2" points="690.1013,-30.6858 698.9394,-24.8429 688.3867,-23.899 690.1013,-30.6858"/>
</g>
<!-- 10&#45;&gt;2 -->
<g id="edge9" class="edge">
<title>10&#45;&gt;2</title>
<path fill="none" stroke="#c0c0c0" stroke-width="2" d="M1016.0261,-647.8314C1016.0261,-640.131 1016.0261,-630.9743 1016.0261,-622.4166"/>
<polygon fill="#c0c0c0" stroke="#c0c0c0" stroke-width="2" points="1019.5262,-622.4132 1016.0261,-612.4133 1012.5262,-622.4133 1019.5262,-622.4132"/>
</g>
<!-- 11&#45;&gt;3 -->
<g id="edge10" class="edge">
<title>11&#45;&gt;3</title>
<path fill="none" stroke="#c0c0c0" stroke-width="2" d="M787.269,-431.8314C786.9482,-424.131 786.5667,-414.9743 786.2101,-406.4166"/>
<polygon fill="#c0c0c0" stroke="#c0c0c0" stroke-width="2" points="789.7067,-406.2589 785.7933,-396.4133 782.7127,-406.5503 789.7067,-406.2589"/>
</g>
<!-- 12&#45;&gt;4 -->
<g id="edge11" class="edge">
<title>12&#45;&gt;4</title>
<path fill="none" stroke="#c0c0c0" stroke-width="2" d="M650.8749,-649.0282C617.802,-638.0547 574.7526,-623.771 540.8023,-612.5064"/>
<polygon fill="#c0c0c0" stroke="#c0c0c0" stroke-width="2" points="541.6261,-609.0922 531.0327,-609.2649 539.4217,-615.736 541.6261,-609.0922"/>
</g>
<!-- 13 -->
<g id="node14" class="node">
<title>13</title>
<path fill="none" stroke="#c6d856" stroke-width="2" d="M370.5261,-252C370.5261,-252 323.5261,-252 323.5261,-252 317.5261,-252 311.5261,-246 311.5261,-240 311.5261,-240 311.5261,-228 311.5261,-228 311.5261,-222 317.5261,-216 323.5261,-216 323.5261,-216 370.5261,-216 370.5261,-216 376.5261,-216 382.5261,-222 382.5261,-228 382.5261,-228 382.5261,-240 382.5261,-240 382.5261,-246 376.5261,-252 370.5261,-252"/>
<text text-anchor="middle" x="347.0261" y="-231.5" font-family="sans" font-size="10.00" fill="#000000">getsangers</text>
</g>
<!-- 13&#45;&gt;5 -->
<g id="edge12" class="edge">
<title>13&#45;&gt;5</title>
<path fill="none" stroke="#c0c0c0" stroke-width="2" d="M321.0348,-215.8314C308.1045,-206.7927 292.3039,-195.7476 278.3877,-186.0198"/>
<polygon fill="#c0c0c0" stroke="#c0c0c0" stroke-width="2" points="280.2103,-183.0235 270.009,-180.1628 276.1998,-188.7608 280.2103,-183.0235"/>
</g>
<!-- 13&#45;&gt;9 -->
<g id="edge34" class="edge">
<title>13&#45;&gt;9</title>
<path fill="none" stroke="#c0c0c0" stroke-width="2" d="M355.9044,-215.8599C365.2712,-197.2802 380.8863,-167.8257 397.0261,-144 403.3993,-134.5917 411.0222,-124.8145 418.1186,-116.2069"/>
<polygon fill="#c0c0c0" stroke="#c0c0c0" stroke-width="2" points="420.9545,-118.2724 424.7031,-108.3629 415.593,-113.7718 420.9545,-118.2724"/>
</g>
<!-- 14 -->
<g id="node15" class="node">
<title>14</title>
<path fill="none" stroke="#5682d8" stroke-width="2" d="M803.0261,-252C803.0261,-252 747.0261,-252 747.0261,-252 741.0261,-252 735.0261,-246 735.0261,-240 735.0261,-240 735.0261,-228 735.0261,-228 735.0261,-222 741.0261,-216 747.0261,-216 747.0261,-216 803.0261,-216 803.0261,-216 809.0261,-216 815.0261,-222 815.0261,-228 815.0261,-228 815.0261,-240 815.0261,-240 815.0261,-246 809.0261,-252 803.0261,-252"/>
<text text-anchor="middle" x="775.0261" y="-231.5" font-family="sans" font-size="10.00" fill="#000000">cnvdetection</text>
</g>
<!-- 14&#45;&gt;5 -->
<g id="edge13" class="edge">
<title>14&#45;&gt;5</title>
<path fill="none" stroke="#c0c0c0" stroke-width="2" d="M734.8734,-224.9668C720.1838,-221.8542 703.3991,-218.5207 688.0261,-216 546.5672,-192.8052 378.2428,-174.9824 295.3578,-166.8453"/>
<polygon fill="#c0c0c0" stroke="#c0c0c0" stroke-width="2" points="295.4931,-163.3419 285.2006,-165.8547 294.8136,-170.3089 295.4931,-163.3419"/>
</g>
<!-- 14&#45;&gt;6 -->
<g id="edge21" class="edge">
<title>14&#45;&gt;6</title>
<path fill="none" stroke="#c0c0c0" stroke-width="2" d="M815.1972,-217.8418C841.199,-207.383 875.279,-193.6748 903.1654,-182.4579"/>
<polygon fill="#c0c0c0" stroke="#c0c0c0" stroke-width="2" points="904.7759,-185.5827 912.7474,-178.6037 902.1636,-179.0884 904.7759,-185.5827"/>
</g>
<!-- 15 -->
<g id="node16" class="node">
<title>15</title>
<path fill="none" stroke="#d87d56" stroke-width="2" d="M281.5261,-252C281.5261,-252 198.5261,-252 198.5261,-252 192.5261,-252 186.5261,-246 186.5261,-240 186.5261,-240 186.5261,-228 186.5261,-228 186.5261,-222 192.5261,-216 198.5261,-216 198.5261,-216 281.5261,-216 281.5261,-216 287.5261,-216 293.5261,-222 293.5261,-228 293.5261,-228 293.5261,-240 293.5261,-240 293.5261,-246 287.5261,-252 281.5261,-252"/>
<text text-anchor="middle" x="240.0261" y="-231.5" font-family="sans" font-size="10.00" fill="#000000">duplicatesnpcheck</text>
</g>
<!-- 15&#45;&gt;5 -->
<g id="edge14" class="edge">
<title>15&#45;&gt;5</title>
<path fill="none" stroke="#c0c0c0" stroke-width="2" d="M241.0354,-215.8314C241.4632,-208.131 241.9719,-198.9743 242.4474,-190.4166"/>
<polygon fill="#c0c0c0" stroke="#c0c0c0" stroke-width="2" points="245.9429,-190.592 243.0031,-180.4133 238.9537,-190.2037 245.9429,-190.592"/>
</g>
<!-- 15&#45;&gt;9 -->
<g id="edge38" class="edge">
<title>15&#45;&gt;9</title>
<path fill="none" stroke="#c0c0c0" stroke-width="2" d="M265.4829,-215.7623C301.5031,-189.9567 367.404,-142.7442 407.4099,-114.0832"/>
<polygon fill="#c0c0c0" stroke="#c0c0c0" stroke-width="2" points="409.6852,-116.7587 415.776,-108.0896 405.6085,-111.0683 409.6852,-116.7587"/>
</g>
<!-- 16 -->
<g id="node17" class="node">
<title>16</title>
<path fill="none" stroke="#56a9d8" stroke-width="2" d="M667.0261,-252C667.0261,-252 577.0261,-252 577.0261,-252 571.0261,-252 565.0261,-246 565.0261,-240 565.0261,-240 565.0261,-228 565.0261,-228 565.0261,-222 571.0261,-216 577.0261,-216 577.0261,-216 667.0261,-216 667.0261,-216 673.0261,-216 679.0261,-222 679.0261,-228 679.0261,-228 679.0261,-240 679.0261,-240 679.0261,-246 673.0261,-252 667.0261,-252"/>
<text text-anchor="middle" x="622.0261" y="-231.5" font-family="sans" font-size="10.00" fill="#000000">createmosaicoutput</text>
</g>
<!-- 16&#45;&gt;5 -->
<g id="edge15" class="edge">
<title>16&#45;&gt;5</title>
<path fill="none" stroke="#c0c0c0" stroke-width="2" d="M564.7279,-218.2407C561.4527,-217.4539 558.2017,-216.7008 555.0261,-216 464.1616,-195.9489 357.0149,-178.7403 295.1589,-169.4245"/>
<polygon fill="#c0c0c0" stroke="#c0c0c0" stroke-width="2" points="295.668,-165.9618 285.2601,-167.943 294.6318,-172.8847 295.668,-165.9618"/>
</g>
<!-- 17&#45;&gt;5 -->
<g id="edge16" class="edge">
<title>17&#45;&gt;5</title>
<path fill="none" stroke="#c0c0c0" stroke-width="2" d="M179.2407,-503.8986C137.4748,-480.947 76.0261,-437.1314 76.0261,-378 76.0261,-378 76.0261,-378 76.0261,-306 76.0261,-259.5795 94.7083,-247.2595 129.0261,-216 147.4205,-199.2448 171.9338,-186.7706 193.6017,-178.058"/>
<polygon fill="#c0c0c0" stroke="#c0c0c0" stroke-width="2" points="194.9318,-181.2965 203.0051,-174.4355 192.4154,-174.7644 194.9318,-181.2965"/>
</g>
<!-- 18&#45;&gt;5 -->
<g id="edge17" class="edge">
<title>18&#45;&gt;5</title>
<path fill="none" stroke="#c0c0c0" stroke-width="2" d="M67.1793,-503.746C56.3183,-476.7781 38.0261,-424.4617 38.0261,-378 38.0261,-378 38.0261,-378 38.0261,-306 38.0261,-259.8034 54.4579,-245.4794 90.0261,-216 119.3545,-191.6922 160.3541,-178.0223 192.6762,-170.5211"/>
<polygon fill="#c0c0c0" stroke="#c0c0c0" stroke-width="2" points="193.8192,-173.8539 202.8396,-168.2968 192.3225,-167.0157 193.8192,-173.8539"/>
</g>
<!-- 19&#45;&gt;5 -->
<g id="edge18" class="edge">
<title>19&#45;&gt;5</title>
<path fill="none" stroke="#c0c0c0" stroke-width="2" d="M626.4941,-368.2848C610.9738,-365.4432 593.8222,-362.4461 578.0261,-360 453.5995,-340.7317 415.9811,-365.2667 297.0261,-324 238.2647,-303.6151 207.6704,-306.1237 177.0261,-252 169.1429,-238.0768 170.1212,-230.4334 177.0261,-216 182.6221,-204.3025 192.1254,-194.3295 202.2432,-186.2563"/>
<polygon fill="#c0c0c0" stroke="#c0c0c0" stroke-width="2" points="204.4757,-188.9583 210.4264,-180.1924 200.308,-183.3341 204.4757,-188.9583"/>
</g>
<!-- 19&#45;&gt;8 -->
<g id="edge31" class="edge">
<title>19&#45;&gt;8</title>
<path fill="none" stroke="#c0c0c0" stroke-width="2" d="M727.7186,-361.8725C730.5161,-361.1898 733.2983,-360.5588 736.0261,-360 905.965,-325.1864 1113.4221,-311.8405 1196.7588,-307.6438"/>
<polygon fill="#c0c0c0" stroke="#c0c0c0" stroke-width="2" points="1196.9409,-311.1392 1206.7579,-307.1546 1196.5988,-304.1476 1196.9409,-311.1392"/>
</g>
<!-- 20&#45;&gt;5 -->
<g id="edge19" class="edge">
<title>20&#45;&gt;5</title>
<path fill="none" stroke="#c0c0c0" stroke-width="2" d="M470.2893,-362.1741C467.1689,-361.3839 464.0629,-360.6501 461.0261,-360 398.6037,-346.6375 227.263,-362.0774 176.0261,-324 135.8444,-294.1385 118.3802,-258.9949 144.0261,-216 154.9641,-197.6625 174.524,-185.1789 193.4619,-176.8768"/>
<polygon fill="#c0c0c0" stroke="#c0c0c0" stroke-width="2" points="195.0143,-180.0241 202.9628,-173.0189 192.3807,-173.5384 195.0143,-180.0241"/>
</g>
<!-- 20&#45;&gt;16 -->
<g id="edge52" class="edge">
<title>20&#45;&gt;16</title>
<path fill="none" stroke="#c0c0c0" stroke-width="2" d="M516.2243,-359.9131C513.1887,-340.573 511.4117,-309.7558 525.0261,-288 533.2455,-274.8653 545.8681,-264.6549 559.3179,-256.8273"/>
<polygon fill="#c0c0c0" stroke="#c0c0c0" stroke-width="2" points="561.0948,-259.8456 568.2378,-252.0207 557.7742,-253.6833 561.0948,-259.8456"/>
</g>
<!-- 34 -->
<g id="node35" class="node">
<title>34</title>
<path fill="none" stroke="#56d88a" stroke-width="2" d="M596.0261,-324C596.0261,-324 546.0261,-324 546.0261,-324 540.0261,-324 534.0261,-318 534.0261,-312 534.0261,-312 534.0261,-300 534.0261,-300 534.0261,-294 540.0261,-288 546.0261,-288 546.0261,-288 596.0261,-288 596.0261,-288 602.0261,-288 608.0261,-294 608.0261,-300 608.0261,-300 608.0261,-312 608.0261,-312 608.0261,-318 602.0261,-324 596.0261,-324"/>
<text text-anchor="middle" x="571.0261" y="-303.5" font-family="sans" font-size="10.00" fill="#000000">addcnvdata</text>
</g>
<!-- 20&#45;&gt;34 -->
<g id="edge79" class="edge">
<title>20&#45;&gt;34</title>
<path fill="none" stroke="#c0c0c0" stroke-width="2" d="M532.8955,-359.8314C538.7096,-351.6232 545.6957,-341.7606 552.0907,-332.7323"/>
<polygon fill="#c0c0c0" stroke="#c0c0c0" stroke-width="2" points="555.0592,-334.5966 557.9833,-324.4133 549.347,-330.5505 555.0592,-334.5966"/>
</g>
<!-- 20&#45;&gt;36 -->
<g id="edge83" class="edge">
<title>20&#45;&gt;36</title>
<path fill="none" stroke="#c0c0c0" stroke-width="2" d="M558.3821,-359.8314C578.5305,-350.2874 603.4013,-338.5065 624.7343,-328.4013"/>
<polygon fill="#c0c0c0" stroke="#c0c0c0" stroke-width="2" points="626.4068,-331.482 633.9459,-324.038 623.4102,-325.1558 626.4068,-331.482"/>
</g>
<!-- 21 -->
<g id="node22" class="node">
<title>21</title>
<path fill="none" stroke="#56a9d8" stroke-width="2" d="M935.0261,-252C935.0261,-252 845.0261,-252 845.0261,-252 839.0261,-252 833.0261,-246 833.0261,-240 833.0261,-240 833.0261,-228 833.0261,-228 833.0261,-222 839.0261,-216 845.0261,-216 845.0261,-216 935.0261,-216 935.0261,-216 941.0261,-216 947.0261,-222 947.0261,-228 947.0261,-228 947.0261,-240 947.0261,-240 947.0261,-246 941.0261,-252 935.0261,-252"/>
<text text-anchor="middle" x="890.0261" y="-231.5" font-family="sans" font-size="10.00" fill="#000000">createmosaicoutput</text>
</g>
<!-- 21&#45;&gt;6 -->
<g id="edge20" class="edge">
<title>21&#45;&gt;6</title>
<path fill="none" stroke="#c0c0c0" stroke-width="2" d="M906.176,-215.8314C913.6977,-207.3694 922.7826,-197.1489 931.0064,-187.8971"/>
<polygon fill="#c0c0c0" stroke="#c0c0c0" stroke-width="2" points="933.631,-190.2127 937.6587,-180.4133 928.3991,-185.5621 933.631,-190.2127"/>
</g>
<!-- 22 -->
<g id="node23" class="node">
<title>22</title>
<path fill="none" stroke="#d87d56" stroke-width="2" d="M534.5261,-252C534.5261,-252 451.5261,-252 451.5261,-252 445.5261,-252 439.5261,-246 439.5261,-240 439.5261,-240 439.5261,-228 439.5261,-228 439.5261,-222 445.5261,-216 451.5261,-216 451.5261,-216 534.5261,-216 534.5261,-216 540.5261,-216 546.5261,-222 546.5261,-228 546.5261,-228 546.5261,-240 546.5261,-240 546.5261,-246 540.5261,-252 534.5261,-252"/>
<text text-anchor="middle" x="493.0261" y="-231.5" font-family="sans" font-size="10.00" fill="#000000">duplicatesnpcheck</text>
</g>
<!-- 22&#45;&gt;6 -->
<g id="edge22" class="edge">
<title>22&#45;&gt;6</title>
<path fill="none" stroke="#c0c0c0" stroke-width="2" d="M546.8554,-218.0707C549.9474,-217.3273 553.0201,-216.63 556.0261,-216 679.2199,-190.1827 826.563,-173.9256 902.7487,-166.5826"/>
<polygon fill="#c0c0c0" stroke="#c0c0c0" stroke-width="2" points="903.3931,-170.0372 913.0166,-165.6056 902.73,-163.0687 903.3931,-170.0372"/>
</g>
<!-- 22&#45;&gt;9 -->
<g id="edge36" class="edge">
<title>22&#45;&gt;9</title>
<path fill="none" stroke="#c0c0c0" stroke-width="2" d="M486.4402,-215.7623C477.4927,-190.9846 461.4185,-146.4714 450.9905,-117.5939"/>
<polygon fill="#c0c0c0" stroke="#c0c0c0" stroke-width="2" points="454.2469,-116.3064 447.5584,-108.0896 447.663,-118.6839 454.2469,-116.3064"/>
</g>
<!-- 23&#45;&gt;6 -->
<g id="edge23" class="edge">
<title>23&#45;&gt;6</title>
<path fill="none" stroke="#c0c0c0" stroke-width="2" d="M1115.8124,-503.6497C1125.2058,-476.5619 1141.0261,-424.0977 1141.0261,-378 1141.0261,-378 1141.0261,-378 1141.0261,-306 1141.0261,-258.8889 1120.9798,-246.4432 1085.0261,-216 1061.9701,-196.4778 1030.8871,-183.2588 1004.7847,-174.7881"/>
<polygon fill="#c0c0c0" stroke="#c0c0c0" stroke-width="2" points="1005.6396,-171.3889 995.0517,-171.7709 1003.5669,-178.075 1005.6396,-171.3889"/>
</g>
<!-- 24&#45;&gt;6 -->
<g id="edge24" class="edge">
<title>24&#45;&gt;6</title>
<path fill="none" stroke="#c0c0c0" stroke-width="2" d="M1212.4549,-359.5204C1208.1954,-349.0979 1202.7915,-335.8316 1198.0261,-324 1178.7239,-276.0765 1193.6225,-250.3446 1155.0261,-216 1133.0094,-196.4087 1057.4385,-179.8591 1005.5031,-170.4295"/>
<polygon fill="#c0c0c0" stroke="#c0c0c0" stroke-width="2" points="1005.9129,-166.9474 995.4541,-168.6397 1004.6854,-173.839 1005.9129,-166.9474"/>
</g>
<!-- 24&#45;&gt;8 -->
<g id="edge30" class="edge">
<title>24&#45;&gt;8</title>
<path fill="none" stroke="#c0c0c0" stroke-width="2" d="M1223.5589,-359.8314C1225.0562,-352.131 1226.8366,-342.9743 1228.5006,-334.4166"/>
<polygon fill="#c0c0c0" stroke="#c0c0c0" stroke-width="2" points="1231.9726,-334.8975 1230.4457,-324.4133 1225.1013,-333.5614 1231.9726,-334.8975"/>
</g>
<!-- 25 -->
<g id="node26" class="node">
<title>25</title>
<path fill="none" stroke="#c6d856" stroke-width="2" d="M1024.5261,-252C1024.5261,-252 977.5261,-252 977.5261,-252 971.5261,-252 965.5261,-246 965.5261,-240 965.5261,-240 965.5261,-228 965.5261,-228 965.5261,-222 971.5261,-216 977.5261,-216 977.5261,-216 1024.5261,-216 1024.5261,-216 1030.5261,-216 1036.5261,-222 1036.5261,-228 1036.5261,-228 1036.5261,-240 1036.5261,-240 1036.5261,-246 1030.5261,-252 1024.5261,-252"/>
<text text-anchor="middle" x="1001.0261" y="-231.5" font-family="sans" font-size="10.00" fill="#000000">getsangers</text>
</g>
<!-- 25&#45;&gt;6 -->
<g id="edge25" class="edge">
<title>25&#45;&gt;6</title>
<path fill="none" stroke="#c0c0c0" stroke-width="2" d="M989.166,-215.8314C983.8631,-207.7079 977.5024,-197.9637 971.6588,-189.0118"/>
<polygon fill="#c0c0c0" stroke="#c0c0c0" stroke-width="2" points="974.4429,-186.8739 966.0458,-180.4133 968.5813,-190.7003 974.4429,-186.8739"/>
</g>
<!-- 25&#45;&gt;9 -->
<g id="edge39" class="edge">
<title>25&#45;&gt;9</title>
<path fill="none" stroke="#c0c0c0" stroke-width="2" d="M965.3302,-219.1956C962.2033,-218.059 959.0709,-216.9761 956.0261,-216 785.3268,-161.2777 576.3078,-116.8964 486.0535,-98.7905"/>
<polygon fill="#c0c0c0" stroke="#c0c0c0" stroke-width="2" points="486.6482,-95.3403 476.1566,-96.8151 485.278,-102.2049 486.6482,-95.3403"/>
</g>
<!-- 26&#45;&gt;6 -->
<g id="edge26" class="edge">
<title>26&#45;&gt;6</title>
<path fill="none" stroke="#c0c0c0" stroke-width="2" d="M1084.1549,-431.9629C1092.6835,-389.9818 1107.8376,-284.1316 1062.0261,-216 1048.7379,-196.2376 1025.9758,-183.3809 1004.7648,-175.1927"/>
<polygon fill="#c0c0c0" stroke="#c0c0c0" stroke-width="2" points="1005.7624,-171.8322 995.1679,-171.751 1003.3993,-178.4213 1005.7624,-171.8322"/>
</g>
<!-- 27&#45;&gt;6 -->
<g id="edge27" class="edge">
<title>27&#45;&gt;6</title>
<path fill="none" stroke="#c0c0c0" stroke-width="2" d="M956.3802,-359.8693C984.4613,-338.0166 1028.0161,-298.3917 1045.0261,-252 1050.5341,-236.978 1052.9431,-229.904 1045.0261,-216 1036.0595,-200.2528 1020.4923,-188.6236 1004.7423,-180.2769"/>
<polygon fill="#c0c0c0" stroke="#c0c0c0" stroke-width="2" points="1006.0152,-177.0027 995.4964,-175.7355 1002.9291,-183.2857 1006.0152,-177.0027"/>
</g>
<!-- 27&#45;&gt;21 -->
<g id="edge59" class="edge">
<title>27&#45;&gt;21</title>
<path fill="none" stroke="#c0c0c0" stroke-width="2" d="M947.3843,-359.9474C962.066,-341.4373 979.5279,-312.0373 967.0261,-288 960.6622,-275.7642 950.1148,-265.7239 938.8376,-257.7624"/>
<polygon fill="#c0c0c0" stroke="#c0c0c0" stroke-width="2" points="940.4157,-254.6129 930.1287,-252.0774 936.5894,-260.4745 940.4157,-254.6129"/>
</g>
<!-- 33 -->
<g id="node34" class="node">
<title>33</title>
<path fill="none" stroke="#56d88a" stroke-width="2" d="M946.0261,-324C946.0261,-324 896.0261,-324 896.0261,-324 890.0261,-324 884.0261,-318 884.0261,-312 884.0261,-312 884.0261,-300 884.0261,-300 884.0261,-294 890.0261,-288 896.0261,-288 896.0261,-288 946.0261,-288 946.0261,-288 952.0261,-288 958.0261,-294 958.0261,-300 958.0261,-300 958.0261,-312 958.0261,-312 958.0261,-318 952.0261,-324 946.0261,-324"/>
<text text-anchor="middle" x="921.0261" y="-303.5" font-family="sans" font-size="10.00" fill="#000000">addcnvdata</text>
</g>
<!-- 27&#45;&gt;33 -->
<g id="edge78" class="edge">
<title>27&#45;&gt;33</title>
<path fill="none" stroke="#c0c0c0" stroke-width="2" d="M928.5026,-359.8314C927.4331,-352.131 926.1614,-342.9743 924.9728,-334.4166"/>
<polygon fill="#c0c0c0" stroke="#c0c0c0" stroke-width="2" points="928.426,-333.8367 923.5835,-324.4133 921.4925,-334.7997 928.426,-333.8367"/>
</g>
<!-- 27&#45;&gt;37 -->
<g id="edge84" class="edge">
<title>27&#45;&gt;37</title>
<path fill="none" stroke="#c0c0c0" stroke-width="2" d="M903.0161,-359.8314C888.95,-350.7074 871.7321,-339.539 856.6327,-329.7449"/>
<polygon fill="#c0c0c0" stroke="#c0c0c0" stroke-width="2" points="858.3214,-326.6684 848.0271,-324.1628 854.512,-332.5412 858.3214,-326.6684"/>
</g>
<!-- 28&#45;&gt;7 -->
<g id="edge28" class="edge">
<title>28&#45;&gt;7</title>
<path fill="none" stroke="#c0c0c0" stroke-width="2" d="M1265.2228,-431.8314C1275.4695,-423.0485 1287.9263,-412.3712 1299.0357,-402.8489"/>
<polygon fill="#c0c0c0" stroke="#c0c0c0" stroke-width="2" points="1301.5213,-405.3282 1306.8361,-396.1628 1296.9657,-400.0134 1301.5213,-405.3282"/>
</g>
<!-- 29&#45;&gt;8 -->
<g id="edge32" class="edge">
<title>29&#45;&gt;8</title>
<path fill="none" stroke="#c0c0c0" stroke-width="2" d="M1287.8432,-575.9086C1332.2232,-535.132 1428.0793,-433.8508 1377.0261,-360 1364.5933,-342.0154 1308.9218,-324.8108 1270.8239,-314.833"/>
<polygon fill="#c0c0c0" stroke="#c0c0c0" stroke-width="2" points="1271.6306,-311.4267 1261.0748,-312.3358 1269.8936,-318.2078 1271.6306,-311.4267"/>
</g>
<!-- 30 -->
<g id="node31" class="node">
<title>30</title>
<path fill="none" stroke="#56d863" stroke-width="2" d="M428.0261,-324C428.0261,-324 318.0261,-324 318.0261,-324 312.0261,-324 306.0261,-318 306.0261,-312 306.0261,-312 306.0261,-300 306.0261,-300 306.0261,-294 312.0261,-288 318.0261,-288 318.0261,-288 428.0261,-288 428.0261,-288 434.0261,-288 440.0261,-294 440.0261,-300 440.0261,-300 440.0261,-312 440.0261,-312 440.0261,-318 434.0261,-324 428.0261,-324"/>
<text text-anchor="middle" x="373.0261" y="-303.5" font-family="sans" font-size="10.00" fill="#000000">comparesnpchecksserie</text>
</g>
<!-- 30&#45;&gt;9 -->
<g id="edge35" class="edge">
<title>30&#45;&gt;9</title>
<path fill="none" stroke="#c0c0c0" stroke-width="2" d="M379.2933,-287.5392C382.8011,-277.1225 387.221,-263.8558 391.0261,-252 406.1225,-204.9622 422.9154,-149.9698 432.6915,-117.671"/>
<polygon fill="#c0c0c0" stroke="#c0c0c0" stroke-width="2" points="436.0653,-118.6056 435.608,-108.0207 429.3647,-116.5805 436.0653,-118.6056"/>
</g>
<!-- 30&#45;&gt;15 -->
<g id="edge48" class="edge">
<title>30&#45;&gt;15</title>
<path fill="none" stroke="#c0c0c0" stroke-width="2" d="M339.4646,-287.8314C322.138,-278.4516 300.8203,-266.9112 282.3725,-256.9244"/>
<polygon fill="#c0c0c0" stroke="#c0c0c0" stroke-width="2" points="284.0372,-253.8457 273.5768,-252.1628 280.7047,-260.0015 284.0372,-253.8457"/>
</g>
<!-- 30&#45;&gt;22 -->
<g id="edge62" class="edge">
<title>30&#45;&gt;22</title>
<path fill="none" stroke="#c0c0c0" stroke-width="2" d="M403.3071,-287.8314C418.6559,-278.6221 437.4759,-267.3301 453.9084,-257.4706"/>
<polygon fill="#c0c0c0" stroke="#c0c0c0" stroke-width="2" points="455.9805,-260.3091 462.7547,-252.1628 452.379,-254.3066 455.9805,-260.3091"/>
</g>
<!-- 31&#45;&gt;11 -->
<g id="edge43" class="edge">
<title>31&#45;&gt;11</title>
<path fill="none" stroke="#c0c0c0" stroke-width="2" d="M788.7737,-503.8314C788.6668,-496.131 788.5396,-486.9743 788.4207,-478.4166"/>
<polygon fill="#c0c0c0" stroke="#c0c0c0" stroke-width="2" points="791.9204,-478.3637 788.2818,-468.4133 784.9211,-478.4609 791.9204,-478.3637"/>
</g>
<!-- 31&#45;&gt;20 -->
<g id="edge57" class="edge">
<title>31&#45;&gt;20</title>
<path fill="none" stroke="#c0c0c0" stroke-width="2" d="M768.0288,-503.8006C744.466,-484.077 704.4868,-452.6617 666.0261,-432 638.7796,-417.3627 606.7154,-405.0205 579.5863,-395.8467"/>
<polygon fill="#c0c0c0" stroke="#c0c0c0" stroke-width="2" points="580.4262,-392.4378 569.8328,-392.6118 578.2226,-399.0819 580.4262,-392.4378"/>
</g>
<!-- 31&#45;&gt;27 -->
<g id="edge67" class="edge">
<title>31&#45;&gt;27</title>
<path fill="none" stroke="#c0c0c0" stroke-width="2" d="M807.0105,-503.7623C832.0842,-478.3354 877.6525,-432.1253 906.0214,-403.3569"/>
<polygon fill="#c0c0c0" stroke="#c0c0c0" stroke-width="2" points="908.6583,-405.6675 913.1877,-396.0896 903.6741,-400.7525 908.6583,-405.6675"/>
</g>
<!-- 31&#45;&gt;28 -->
<g id="edge69" class="edge">
<title>31&#45;&gt;28</title>
<path fill="none" stroke="#c0c0c0" stroke-width="2" d="M823.5985,-516.5292C904.2728,-503.7632 1105.0565,-471.9908 1196.8653,-457.4628"/>
<polygon fill="#c0c0c0" stroke="#c0c0c0" stroke-width="2" points="1197.6514,-460.882 1206.9814,-455.862 1196.5572,-453.9681 1197.6514,-460.882"/>
</g>
<!-- 31&#45;&gt;32 -->
<g id="edge77" class="edge">
<title>31&#45;&gt;32</title>
<path fill="none" stroke="#c0c0c0" stroke-width="2" d="M754.4494,-513.8108C699.6111,-500.8228 592.6357,-475.4865 531.2658,-460.9515"/>
<polygon fill="#c0c0c0" stroke="#c0c0c0" stroke-width="2" points="531.9947,-457.5274 521.4572,-458.6284 530.3814,-464.339 531.9947,-457.5274"/>
</g>
<!-- 31&#45;&gt;39 -->
<g id="edge88" class="edge">
<title>31&#45;&gt;39</title>
<path fill="none" stroke="#c0c0c0" stroke-width="2" d="M823.6319,-509.7862C857.6503,-497.7797 909.7715,-479.384 947.2122,-466.1696"/>
<polygon fill="#c0c0c0" stroke="#c0c0c0" stroke-width="2" points="948.6094,-469.3882 956.8744,-462.7594 946.2796,-462.7872 948.6094,-469.3882"/>
</g>
<!-- 32&#45;&gt;13 -->
<g id="edge45" class="edge">
<title>32&#45;&gt;13</title>
<path fill="none" stroke="#c0c0c0" stroke-width="2" d="M448.7821,-444.8057C399.4681,-436.9116 315.2605,-420.2092 297.0261,-396 268.1476,-357.659 279.513,-332.6911 297.0261,-288 301.2019,-277.3439 308.5773,-267.5335 316.402,-259.2816"/>
<polygon fill="#c0c0c0" stroke="#c0c0c0" stroke-width="2" points="318.9636,-261.6713 323.6352,-252.162 314.0531,-256.6825 318.9636,-261.6713"/>
</g>
<!-- 33&#45;&gt;14 -->
<g id="edge46" class="edge">
<title>33&#45;&gt;14</title>
<path fill="none" stroke="#c0c0c0" stroke-width="2" d="M884.1841,-287.8314C864.9178,-278.3302 841.1561,-266.6121 820.7269,-256.5374"/>
<polygon fill="#c0c0c0" stroke="#c0c0c0" stroke-width="2" points="822.1199,-253.3219 811.6031,-252.038 819.0238,-259.6 822.1199,-253.3219"/>
</g>
<!-- 34&#45;&gt;14 -->
<g id="edge47" class="edge">
<title>34&#45;&gt;14</title>
<path fill="none" stroke="#c0c0c0" stroke-width="2" d="M608.1302,-291.3206C611.134,-290.1812 614.1272,-289.062 617.0261,-288 653.0083,-274.8183 693.96,-260.8511 725.1542,-250.4245"/>
<polygon fill="#c0c0c0" stroke="#c0c0c0" stroke-width="2" points="726.5406,-253.6518 734.9207,-247.1692 724.3271,-247.011 726.5406,-253.6518"/>
</g>
<!-- 35 -->
<g id="node36" class="node">
<title>35</title>
<path fill="none" stroke="#88d856" stroke-width="2" d="M238.0261,-396C238.0261,-396 116.0261,-396 116.0261,-396 110.0261,-396 104.0261,-390 104.0261,-384 104.0261,-384 104.0261,-372 104.0261,-372 104.0261,-366 110.0261,-360 116.0261,-360 116.0261,-360 238.0261,-360 238.0261,-360 244.0261,-360 250.0261,-366 250.0261,-372 250.0261,-372 250.0261,-384 250.0261,-384 250.0261,-390 244.0261,-396 238.0261,-396"/>
<text text-anchor="middle" x="177.0261" y="-375.5" font-family="sans" font-size="10.00" fill="#000000">comparesnpcheckssample</text>
</g>
<!-- 35&#45;&gt;15 -->
<g id="edge49" class="edge">
<title>35&#45;&gt;15</title>
<path fill="none" stroke="#c0c0c0" stroke-width="2" d="M185.0051,-359.7623C195.8453,-334.9846 215.3198,-290.4714 227.9537,-261.5939"/>
<polygon fill="#c0c0c0" stroke="#c0c0c0" stroke-width="2" points="231.3102,-262.6541 232.1119,-252.0896 224.8971,-259.8483 231.3102,-262.6541"/>
</g>
<!-- 35&#45;&gt;30 -->
<g id="edge73" class="edge">
<title>35&#45;&gt;30</title>
<path fill="none" stroke="#c0c0c0" stroke-width="2" d="M226.2322,-359.9243C252.91,-350.1243 286.0646,-337.945 314.1113,-327.6422"/>
<polygon fill="#c0c0c0" stroke="#c0c0c0" stroke-width="2" points="315.6199,-330.8167 323.7997,-324.0831 313.2062,-324.246 315.6199,-330.8167"/>
</g>
<!-- 36&#45;&gt;16 -->
<g id="edge50" class="edge">
<title>36&#45;&gt;16</title>
<path fill="none" stroke="#c0c0c0" stroke-width="2" d="M659.409,-287.8314C653.7089,-279.6232 646.8598,-269.7606 640.5902,-260.7323"/>
<polygon fill="#c0c0c0" stroke="#c0c0c0" stroke-width="2" points="643.3919,-258.6306 634.8131,-252.4133 637.6423,-262.6234 643.3919,-258.6306"/>
</g>
<!-- 36&#45;&gt;21 -->
<g id="edge58" class="edge">
<title>36&#45;&gt;21</title>
<path fill="none" stroke="#c0c0c0" stroke-width="2" d="M718.2583,-290.7307C749.561,-280.3921 791.3404,-266.5934 825.8567,-255.1936"/>
<polygon fill="#c0c0c0" stroke="#c0c0c0" stroke-width="2" points="826.9869,-258.5063 835.3847,-252.0467 824.7915,-251.8595 826.9869,-258.5063"/>
</g>
<!-- 37&#45;&gt;16 -->
<g id="edge51" class="edge">
<title>37&#45;&gt;16</title>
<path fill="none" stroke="#c0c0c0" stroke-width="2" d="M773.8538,-289.2101C746.2195,-279.1612 710.819,-266.2883 681.1533,-255.5008"/>
<polygon fill="#c0c0c0" stroke="#c0c0c0" stroke-width="2" points="682.3343,-252.2061 671.7402,-252.0779 679.9421,-258.7847 682.3343,-252.2061"/>
</g>
<!-- 37&#45;&gt;21 -->
<g id="edge60" class="edge">
<title>37&#45;&gt;21</title>
<path fill="none" stroke="#c0c0c0" stroke-width="2" d="M837.69,-287.8314C845.9992,-279.2848 856.0524,-268.9443 865.1179,-259.6198"/>
<polygon fill="#c0c0c0" stroke="#c0c0c0" stroke-width="2" points="867.663,-262.023 872.1243,-252.4133 862.644,-257.1435 867.663,-262.023"/>
</g>
<!-- 38 -->
<g id="node39" class="node">
<title>38</title>
<path fill="none" stroke="#88d856" stroke-width="2" d="M440.0261,-396C440.0261,-396 318.0261,-396 318.0261,-396 312.0261,-396 306.0261,-390 306.0261,-384 306.0261,-384 306.0261,-372 306.0261,-372 306.0261,-366 312.0261,-360 318.0261,-360 318.0261,-360 440.0261,-360 440.0261,-360 446.0261,-360 452.0261,-366 452.0261,-372 452.0261,-372 452.0261,-384 452.0261,-384 452.0261,-390 446.0261,-396 440.0261,-396"/>
<text text-anchor="middle" x="379.0261" y="-375.5" font-family="sans" font-size="10.00" fill="#000000">comparesnpcheckssample</text>
</g>
<!-- 38&#45;&gt;22 -->
<g id="edge61" class="edge">
<title>38&#45;&gt;22</title>
<path fill="none" stroke="#c0c0c0" stroke-width="2" d="M408.4877,-359.8359C422.0786,-350.3911 437.6754,-337.9158 449.0261,-324 464.2151,-305.3784 475.8255,-280.641 483.2958,-261.8138"/>
<polygon fill="#c0c0c0" stroke="#c0c0c0" stroke-width="2" points="486.6288,-262.8961 486.919,-252.3053 480.0876,-260.4035 486.6288,-262.8961"/>
</g>
<!-- 38&#45;&gt;30 -->
<g id="edge72" class="edge">
<title>38&#45;&gt;30</title>
<path fill="none" stroke="#c0c0c0" stroke-width="2" d="M377.512,-359.8314C376.8703,-352.131 376.1073,-342.9743 375.3941,-334.4166"/>
<polygon fill="#c0c0c0" stroke="#c0c0c0" stroke-width="2" points="378.879,-334.088 374.5605,-324.4133 371.9031,-334.6694 378.879,-334.088"/>
</g>
<!-- 39&#45;&gt;25 -->
<g id="edge65" class="edge">
<title>39&#45;&gt;25</title>
<path fill="none" stroke="#c0c0c0" stroke-width="2" d="M993.6944,-431.9555C995.0856,-394.3938 998.3018,-307.5541 999.9738,-262.4103"/>
<polygon fill="#c0c0c0" stroke="#c0c0c0" stroke-width="2" points="1003.4814,-262.2678 1000.354,-252.1451 996.4862,-262.0086 1003.4814,-262.2678"/>
</g>
<!-- 40&#45;&gt;35 -->
<g id="edge80" class="edge">
<title>40&#45;&gt;35</title>
<path fill="none" stroke="#c0c0c0" stroke-width="2" d="M319.382,-503.7623C290.4777,-478.2272 237.8473,-431.7316 205.314,-402.9906"/>
<polygon fill="#c0c0c0" stroke="#c0c0c0" stroke-width="2" points="207.3142,-400.0874 197.5025,-396.0896 202.6796,-405.3335 207.3142,-400.0874"/>
</g>
<!-- 41&#45;&gt;38 -->
<g id="edge87" class="edge">
<title>41&#45;&gt;38</title>
<path fill="none" stroke="#c0c0c0" stroke-width="2" d="M576.9217,-437.8676C541.968,-427.2934 490.4859,-411.7189 448.7928,-399.1059"/>
<polygon fill="#c0c0c0" stroke="#c0c0c0" stroke-width="2" points="449.5527,-395.6792 438.9677,-396.1336 447.5258,-402.3793 449.5527,-395.6792"/>
</g>
</g>
</svg>
